<svg width="18" height="17" viewBox="0 0 18 17" fill="none" xmlns="http://www.w3.org/2000/svg">
<path d="M17.8641 12.7035H0L1.24313 1.22737C1.27941 0.890339 1.43895 0.578604 1.69111 0.352056C1.94326 0.125508 2.27023 0.000125969 2.60921 0H15.2538C15.5928 0.000125969 15.9198 0.125508 16.1719 0.352056C16.4241 0.578604 16.5836 0.890339 16.6199 1.22737L17.8641 12.7035Z" fill="url(#paint0_linear_5155_14397)"/>
<path d="M0 12.7036H17.8641V14.9251C17.8641 15.1057 17.8285 15.2846 17.7594 15.4515C17.6902 15.6183 17.5889 15.77 17.4612 15.8977C17.3335 16.0254 17.1818 16.1268 17.0149 16.1959C16.8481 16.265 16.6692 16.3006 16.4885 16.3006H1.37553C1.1949 16.3006 1.01603 16.265 0.84914 16.1959C0.682253 16.1268 0.530615 16.0254 0.402885 15.8977C0.275154 15.77 0.173833 15.6183 0.104706 15.4515C0.0355792 15.2846 0 15.1057 0 14.9251V12.7036Z" fill="#5EA0EF"/>
<path d="M15.2663 11.1294H2.59747C2.54911 11.1294 2.5013 11.1192 2.45715 11.0995C2.41299 11.0798 2.37347 11.051 2.34116 11.015C2.30885 10.9791 2.28448 10.9367 2.26961 10.8907C2.25475 10.8447 2.24974 10.796 2.2549 10.7479L3.21535 1.88106C3.22442 1.7968 3.26431 1.71887 3.32735 1.66223C3.39039 1.6056 3.47213 1.57425 3.55687 1.57422H14.3068C14.3916 1.57425 14.4733 1.6056 14.5364 1.66223C14.5994 1.71887 14.6393 1.7968 14.6484 1.88106L15.6088 10.7479C15.614 10.796 15.609 10.8447 15.5941 10.8907C15.5792 10.9367 15.5549 10.9791 15.5226 11.015C15.4902 11.051 15.4507 11.0798 15.4066 11.0995C15.3624 11.1192 15.3146 11.1294 15.2663 11.1294Z" fill="#F2F2F2"/>
<path d="M13.8615 14.7642V13.9298C13.8615 13.8892 13.8535 13.849 13.8379 13.8116C13.8224 13.7741 13.7997 13.74 13.771 13.7113C13.7423 13.6826 13.7082 13.6599 13.6708 13.6444C13.6333 13.6288 13.5931 13.6208 13.5525 13.6208H13.5157C13.4752 13.6208 13.435 13.6288 13.3975 13.6444C13.36 13.6599 13.326 13.6826 13.2973 13.7113C13.2686 13.74 13.2458 13.7741 13.2303 13.8116C13.2148 13.849 13.2068 13.8892 13.2068 13.9298V14.7211H9.16426V13.9298C9.16426 13.8892 9.15627 13.849 9.14075 13.8116C9.12522 13.7741 9.10247 13.74 9.07378 13.7113C9.04509 13.6826 9.01103 13.6599 8.97355 13.6444C8.93607 13.6288 8.89589 13.6208 8.85532 13.6208H8.81854C8.73697 13.6214 8.65893 13.6542 8.60144 13.7121C8.54396 13.77 8.5117 13.8482 8.5117 13.9298V14.7211H4.24744V13.9403C4.24744 13.8584 4.21489 13.7798 4.15695 13.7218C4.09901 13.6639 4.02043 13.6314 3.9385 13.6314H3.90172C3.81978 13.6314 3.7412 13.6639 3.68326 13.7218C3.62532 13.7798 3.59277 13.8584 3.59277 13.9403V14.7705C3.59277 14.9343 3.65787 15.0915 3.77375 15.2074C3.88962 15.3232 4.04679 15.3883 4.21066 15.3883H4.24744L13.2446 15.3778C13.4077 15.3778 13.5641 15.3133 13.6797 15.1983C13.7953 15.0833 13.8606 14.9272 13.8615 14.7642Z" fill="#F2F2F2"/>
<path d="M8.48954 6.66237H6.24287C6.17247 6.66237 6.11572 6.62769 6.11572 6.58461C6.11602 6.57312 6.12008 6.56204 6.12728 6.55308L8.82686 2.88044C8.84167 2.86494 8.85969 2.85286 8.87966 2.84506C8.89962 2.83725 8.92105 2.83391 8.94245 2.83525H11.6C11.6704 2.83525 11.7271 2.86993 11.7271 2.91301C11.7268 2.92151 11.7247 2.92985 11.7209 2.93746C11.7171 2.94507 11.7117 2.95178 11.7051 2.95715L8.53683 5.83116H11.621C11.6914 5.83116 11.7482 5.86584 11.7482 5.90892C11.7473 5.91965 11.7439 5.93002 11.7383 5.93916C11.7326 5.9483 11.7248 5.95595 11.7156 5.96146L6.58754 9.63936C6.54026 9.65933 6.19769 9.85478 6.36582 9.5574L8.48954 6.66237Z" fill="#5EA0EF"/>
<defs>
<linearGradient id="paint0_linear_5155_14397" x1="8.93204" y1="12.7035" x2="8.93204" y2="0" gradientUnits="userSpaceOnUse">
<stop stop-color="#0078D4"/>
<stop offset="0.156" stop-color="#1380DA"/>
<stop offset="0.528" stop-color="#3C91E5"/>
<stop offset="0.822" stop-color="#559CEC"/>
<stop offset="1" stop-color="#5EA0EF"/>
</linearGradient>
</defs>
</svg>
